<svg width="22" height="24" viewBox="0 0 22 24" fill="none" xmlns="http://www.w3.org/2000/svg">
<path fill-rule="evenodd" clip-rule="evenodd" d="M16.1411 2.93197C16.1411 1.4023 17.2769 0.160156 18.6757 0.160156C20.0745 0.160156 21.2103 1.4023 21.2103 2.93197C21.2103 4.46164 20.0745 5.70378 18.6757 5.70378C17.2769 5.70378 16.1411 4.46164 16.1411 2.93197ZM12.0928 14.8359L15.1322 10.5471L15.0901 10.5701C15.2584 10.317 15.2899 9.99501 15.1742 9.70748C15.0596 9.41995 14.8062 9.22443 14.5338 9.20142C14.2488 9.16692 13.9658 9.30493 13.7965 9.55796L11.2525 13.1578L8.33822 10.6506C8.15943 10.5011 7.94909 10.4424 7.73875 10.4666C7.52947 10.5011 7.34016 10.6264 7.21291 10.8104L4.10094 15.2396L4.03678 15.3431C3.858 15.71 3.94213 16.1815 4.25764 16.4357C4.40488 16.5392 4.56263 16.6082 4.74142 16.6082C4.98436 16.6197 5.21468 16.4806 5.36192 16.2632L8.00168 12.5471L10.999 15.0095L11.0937 15.0774C11.4302 15.2729 11.8509 15.1821 12.0928 14.8359ZM14.3221 2.20813C14.28 2.49566 14.259 2.78319 14.259 3.07072C14.259 5.6585 16.1731 7.75058 18.5289 7.75058C18.7918 7.75058 19.0442 7.71723 19.3071 7.67122V16.9516C19.3071 20.8516 17.2037 23.1634 13.628 23.1634H5.85697C2.28015 23.1634 0.176758 20.8516 0.176758 16.9516V8.4418C0.176758 4.53138 2.28015 2.20813 5.85697 2.20813H14.3221Z" fill="#06152B"/>
</svg>
