<svg width="20" height="27" viewBox="0 0 20 27" fill="none" xmlns="http://www.w3.org/2000/svg">
<path fill-rule="evenodd" clip-rule="evenodd" d="M14.8481 7.02707C14.8816 6.93568 14.8973 6.83609 14.894 6.73608H14.9215C14.8036 3.29543 12.481 0.580078 9.65586 0.580078C6.83073 0.580078 4.5081 3.29543 4.3902 6.73608C4.37631 6.83234 4.37631 6.93081 4.3902 7.02707H5.9419C5.9558 6.93081 5.9558 6.83234 5.9419 6.73608C5.9419 4.26366 7.5862 2.25937 9.61454 2.25937C11.6429 2.25937 13.2872 4.26366 13.2872 6.73608C13.2882 6.83563 13.3038 6.93416 13.3331 7.02707H14.8481ZM18.2362 11.0501L19.0468 19.0375C19.643 24.2451 17.2487 26.368 14.0344 26.368H5.29536C2.07179 26.368 -0.397127 24.9019 0.273674 19.0375L1.09354 11.0501C1.51279 8.11786 2.95688 7.02707 4.30779 7.02707H15.0127C16.3449 7.02707 17.7424 8.19996 18.2362 11.0501ZM6.58981 13.6657C6.07526 13.6657 5.65814 13.1406 5.65814 12.4928C5.65814 11.8451 6.07526 11.3199 6.58981 11.3199C7.10435 11.3199 7.52148 11.8451 7.52148 12.4928C7.52148 13.1406 7.10435 13.6657 6.58981 13.6657ZM11.7608 12.4928C11.7608 13.1406 12.1779 13.6657 12.6925 13.6657C13.207 13.6657 13.6242 13.1406 13.6242 12.4928C13.6242 11.8451 13.207 11.3199 12.6925 11.3199C12.1779 11.3199 11.7608 11.8451 11.7608 12.4928Z" fill="#FF69B4"/>
</svg>
