<svg width="20" height="24" viewBox="0 0 20 24" fill="none" xmlns="http://www.w3.org/2000/svg">
<path fill-rule="evenodd" clip-rule="evenodd" d="M14.3317 0.928927L14.3327 1.79109C17.2298 2.03939 19.1435 4.19824 19.1466 7.50894L19.158 17.1996C19.1622 20.8092 17.0886 23.0301 13.7648 23.0359L5.64575 23.0474C2.3427 23.052 0.243122 20.7782 0.238968 17.1583L0.227546 7.58136C0.223393 4.24882 2.06961 2.09572 4.96666 1.80488L4.96562 0.942722C4.96458 0.43692 5.30725 0.05642 5.76413 0.05642C6.22101 0.0552704 6.56367 0.434621 6.56471 0.940423L6.56575 1.74511L12.7337 1.73591L12.7326 0.931226C12.7316 0.425425 13.0742 0.046074 13.5311 0.0449245C13.9776 0.0437749 14.3307 0.423126 14.3317 0.928927ZM1.82738 7.93718L17.5483 7.91419V7.51185C17.5036 5.04032 16.3697 3.74363 14.3345 3.55051L14.3356 4.43566C14.3356 4.92997 13.9836 5.32196 13.5371 5.32196C13.0802 5.32311 12.7365 4.93226 12.7365 4.43796L12.7354 3.50682L6.56754 3.51602L6.56858 4.44601C6.56858 4.94146 6.22695 5.33231 5.77007 5.33231C5.31319 5.33346 4.96949 4.94376 4.96949 4.4483L4.96845 3.56315C2.94363 3.78502 1.82323 5.0863 1.82634 7.57967L1.82738 7.93718ZM13.1002 13.1613V13.1739C13.1106 13.7027 13.5052 14.1039 13.9839 14.0924C14.4512 14.0798 14.8239 13.6418 14.8135 13.113C14.7917 12.6072 14.4169 12.1945 13.9507 12.1957C13.473 12.2071 13.0992 12.6325 13.1002 13.1613ZM13.9572 18.3225C13.4795 18.311 13.0943 17.8753 13.0933 17.3465C13.0829 16.8177 13.466 16.3797 13.9437 16.3671H13.9541C14.4421 16.3671 14.8377 16.8028 14.8377 17.3431C14.8387 17.8834 14.4442 18.3213 13.9572 18.3225ZM8.82156 13.1809C8.84233 13.7097 9.23794 14.1224 9.71559 14.0994C10.1829 14.0753 10.5556 13.6384 10.5349 13.1097C10.5234 12.5924 10.1392 12.19 9.67198 12.1912C9.19433 12.2142 8.82052 12.6521 8.82156 13.1809ZM9.7197 18.2709C9.24205 18.2938 8.84747 17.8812 8.82566 17.3524C8.82566 16.8236 9.19844 16.3867 9.67609 16.3626C10.1434 16.3615 10.5286 16.7638 10.539 17.2799C10.5608 17.8099 10.187 18.2467 9.7197 18.2709ZM4.54391 13.2214C4.56467 13.7501 4.96029 14.164 5.43794 14.1398C5.90521 14.1169 6.27798 13.6789 6.25618 13.1501C6.24579 12.6328 5.8616 12.2304 5.39329 12.2316C4.91564 12.2546 4.54287 12.6926 4.54391 13.2214ZM5.44236 18.2773C4.96471 18.3014 4.57013 17.8876 4.54833 17.3588C4.54729 16.83 4.9211 16.392 5.39875 16.369C5.86602 16.3679 6.25125 16.7702 6.26164 17.2875C6.28344 17.8163 5.91067 18.2543 5.44236 18.2773Z" fill="#06152B"/>
</svg>
