<svg width="22" height="24" viewBox="0 0 22 24" fill="none" xmlns="http://www.w3.org/2000/svg">
<path fill-rule="evenodd" clip-rule="evenodd" d="M5.78132 0.724609H15.6031C19.1799 0.724609 21.1992 2.9432 21.2097 6.85477V17.5969C21.2097 21.5073 19.1799 23.7271 15.6031 23.7271H5.78132C2.2045 23.7271 0.175781 21.5073 0.175781 17.5969V6.85477C0.175781 2.9432 2.2045 0.724609 5.78132 0.724609ZM10.7447 18.9649C11.198 18.9649 11.5755 18.5969 11.6176 18.1024V6.38259C11.6597 6.02605 11.503 5.66836 11.219 5.47399C10.9235 5.27847 10.5659 5.27847 10.283 5.47399C9.99799 5.66836 9.84128 6.02605 9.87178 6.38259V18.1024C9.92542 18.5969 10.303 18.9649 10.7447 18.9649ZM15.583 18.9651C16.0247 18.9651 16.4023 18.5971 16.4559 18.1025V14.3301C16.4864 13.9609 16.3297 13.617 16.0447 13.4215C15.7618 13.226 15.4042 13.226 15.1098 13.4215C14.8248 13.617 14.6681 13.9609 14.7101 14.3301V18.1025C14.7522 18.5971 15.1297 18.9651 15.583 18.9651ZM6.71675 18.1038C6.67468 18.5983 6.29712 18.9664 5.84384 18.9664C5.39161 18.9664 5.013 18.5983 4.97198 18.1038V10.1564C4.94043 9.79875 5.09714 9.44336 5.38215 9.24784C5.66505 9.05232 6.02368 9.05232 6.30764 9.24784C6.59054 9.44336 6.74935 9.79875 6.71675 10.1564V18.1038Z" fill="#06152B"/>
</svg>
