<svg width="20" height="24" viewBox="0 0 20 24" fill="none" xmlns="http://www.w3.org/2000/svg">
<path fill-rule="evenodd" clip-rule="evenodd" d="M5.2862 0.9375H14.1005C17.3492 0.9375 19.1581 2.98472 19.1581 6.4926V18.3734C19.1581 21.9388 17.3492 23.94 14.1005 23.94H5.2862C2.08904 23.94 0.227539 21.9388 0.227539 18.3734V6.4926C0.227539 2.98472 2.08904 0.9375 5.2862 0.9375ZM5.56982 6.29853V6.28703H8.71334C9.16663 6.28703 9.53472 6.68957 9.53472 7.18297C9.53472 7.69018 9.16663 8.09272 8.71334 8.09272H5.56982C5.11654 8.09272 4.7495 7.69018 4.7495 7.19562C4.7495 6.70107 5.11654 6.29853 5.56982 6.29853ZM5.56982 13.2916H13.8151C14.2673 13.2916 14.6354 12.8891 14.6354 12.3945C14.6354 11.9 14.2673 11.4963 13.8151 11.4963H5.56982C5.11654 11.4963 4.7495 11.9 4.7495 12.3945C4.7495 12.8891 5.11654 13.2916 5.56982 13.2916ZM5.56999 18.5473H13.8153C14.2349 18.5013 14.5515 18.1091 14.5515 17.6502C14.5515 17.1786 14.2349 16.7876 13.8153 16.7416H5.56999C5.25448 16.7071 4.94949 16.8681 4.78122 17.1671C4.61294 17.4547 4.61294 17.8342 4.78122 18.1332C4.94949 18.4208 5.25448 18.5933 5.56999 18.5473Z" fill="#06152B"/>
</svg>
