<svg width="22" height="26" viewBox="0 0 22 26" fill="none" xmlns="http://www.w3.org/2000/svg">
<path fill-rule="evenodd" clip-rule="evenodd" d="M13.8771 5.26399C14.2093 5.26956 14.5422 5.27515 14.8763 5.27933C18.4661 5.27933 21.0834 8.40966 21.0834 12.7325V18.2851C21.0834 22.6079 18.4661 25.7383 14.8763 25.7383C13.4384 25.7755 12.0004 25.788 10.5521 25.788C9.10373 25.788 7.64507 25.7755 6.20709 25.7383C2.61732 25.7383 0 22.6079 0 18.2851V12.7325C0 8.40966 2.61732 5.27933 6.21744 5.27933C7.57265 5.25448 8.9589 5.22964 10.3658 5.22964V5.01847C10.3658 4.16135 9.77617 3.46572 9.0727 3.46572H8.04853C6.87953 3.46572 5.92777 2.3229 5.92777 0.931646C5.92777 0.422346 6.27951 0 6.70366 0C7.13816 0 7.47955 0.422346 7.47955 0.931646C7.47955 1.3043 7.73818 1.60243 8.04853 1.60243H9.0727C10.6348 1.61485 11.9073 3.14275 11.9176 5.00604V5.24206C12.5698 5.24206 13.2219 5.253 13.8771 5.26399ZM9.33111 16.4331H8.24487V17.7498C8.24487 18.2591 7.89313 18.6814 7.46898 18.6814C7.03448 18.6814 6.69309 18.2591 6.69309 17.7498V16.4331H5.59651C5.17235 16.4331 4.82062 16.0231 4.82062 15.5014C4.82062 14.9921 5.17235 14.5698 5.59651 14.5698H6.69309V13.2655C6.69309 12.7562 7.03448 12.3338 7.46898 12.3338C7.89313 12.3338 8.24487 12.7562 8.24487 13.2655V14.5698H9.33111C9.75526 14.5698 10.107 14.9921 10.107 15.5014C10.107 16.0231 9.75526 16.4331 9.33111 16.4331ZM13.7282 14.3331H13.8317C14.2558 14.3331 14.6076 13.9232 14.6076 13.4015C14.6076 12.8922 14.2558 12.4698 13.8317 12.4698H13.7282C13.2937 12.4698 12.9524 12.8922 12.9524 13.4015C12.9524 13.9232 13.2937 14.3331 13.7282 14.3331ZM15.4969 18.6068H15.6003C16.0245 18.6068 16.3762 18.1968 16.3762 17.6751C16.3762 17.1658 16.0245 16.7435 15.6003 16.7435H15.4969C15.0613 16.7435 14.721 17.1658 14.721 17.6751C14.721 18.1968 15.0613 18.6068 15.4969 18.6068Z" fill="#03A89E"/>
</svg>
