<svg width="22" height="25" viewBox="0 0 22 25" fill="none" xmlns="http://www.w3.org/2000/svg">
<path fill-rule="evenodd" clip-rule="evenodd" d="M14.7097 0.222862C15.3749 0.222862 16.039 0.337619 16.6704 0.596788C20.5614 2.14407 21.9634 7.36613 20.7923 11.9306C20.1281 14.2631 19.0423 16.3919 17.6203 18.1313C15.5846 20.5425 13.3509 22.6829 10.9463 24.5267L10.6827 24.7214L10.4087 24.5138C7.99566 22.6829 5.74921 20.5425 3.69463 18.1184C2.28204 16.379 1.19519 14.2631 0.52052 11.9306C-0.670695 7.36613 0.731354 2.14407 4.66447 0.56971C4.97018 0.44077 5.28538 0.350513 5.60163 0.300226H5.72813C6.02435 0.247361 6.31847 0.222862 6.61364 0.222862H6.72959C7.39372 0.247361 8.03677 0.389194 8.65978 0.648363H8.72198C8.76415 0.672862 8.79577 0.699939 8.81686 0.724438C9.04983 0.815985 9.27015 0.919137 9.48098 1.06097L9.88157 1.28017C9.97837 1.34331 10.087 1.4398 10.1809 1.52318C10.2404 1.57601 10.294 1.62359 10.3349 1.65409C10.3521 1.66651 10.3696 1.67899 10.3872 1.69158C10.4776 1.75611 10.5717 1.82334 10.6511 1.89779C11.8223 0.803091 13.2444 0.209968 14.7097 0.222862ZM17.5135 9.50589C17.9457 9.49171 18.3147 9.0675 18.3463 8.52466V8.37122C18.378 6.56478 17.483 4.92853 16.122 4.29673C15.6898 4.11492 15.2154 4.39988 15.0573 4.94143C14.9097 5.48297 15.1417 6.0761 15.5844 6.26822C16.2601 6.57767 16.7124 7.39128 16.7124 8.29257V8.33254C16.6923 8.62781 16.7651 8.91277 16.9127 9.13197C17.0602 9.35117 17.2816 9.47882 17.5135 9.50589Z" fill="#3A36DB"/>
</svg>
