<svg width="26" height="28" viewBox="0 0 26 28" fill="none" xmlns="http://www.w3.org/2000/svg">
<path fill-rule="evenodd" clip-rule="evenodd" d="M4.77482 2.30078H8.32956C9.81245 2.30078 11.0009 3.62342 11.0009 5.24625V9.16702C11.0009 10.8002 9.81245 12.1113 8.32956 12.1113H4.77482C3.30245 12.1113 2.10352 10.8002 2.10352 9.16702V5.24625C2.10352 3.62342 3.30245 2.30078 4.77482 2.30078ZM4.77482 15.4913H8.32956C9.81245 15.4913 11.0009 16.8035 11.0009 18.4367V22.3575C11.0009 23.9792 9.81245 25.3018 8.32956 25.3018H4.77482C3.30245 25.3018 2.10352 23.9792 2.10352 22.3575V18.4367C2.10352 16.8035 3.30245 15.4913 4.77482 15.4913ZM20.4662 2.30078H16.9114C15.4285 2.30078 14.2401 3.62342 14.2401 5.24625V9.16702C14.2401 10.8002 15.4285 12.1113 16.9114 12.1113H20.4662C21.9385 12.1113 23.1375 10.8002 23.1375 9.16702V5.24625C23.1375 3.62342 21.9385 2.30078 20.4662 2.30078ZM16.9114 15.4913H20.4662C21.9385 15.4913 23.1375 16.8035 23.1375 18.4367V22.3575C23.1375 23.9792 21.9385 25.3018 20.4662 25.3018H16.9114C15.4285 25.3018 14.2401 23.9792 14.2401 22.3575V18.4367C14.2401 16.8035 15.4285 15.4913 16.9114 15.4913Z" fill="#3A36DB"/>
</svg>
