<svg width="19" height="24" viewBox="0 0 19 24" fill="none" xmlns="http://www.w3.org/2000/svg">
<path fill-rule="evenodd" clip-rule="evenodd" d="M16.7462 8.07638C16.7462 9.52085 17.0953 10.3722 17.8635 11.3534C18.4457 12.0762 18.6318 13.004 18.6318 14.0107C18.6318 15.0161 18.3297 15.9706 17.7245 16.7455C16.9322 17.6745 15.8148 18.2676 14.6745 18.3707C13.022 18.5248 11.3684 18.6545 9.69287 18.6545C8.0163 18.6545 6.36378 18.5769 4.71125 18.3707C3.56985 18.2676 2.45249 17.6745 1.66124 16.7455C1.05605 15.9706 0.75293 15.0161 0.75293 14.0107C0.75293 13.004 0.940028 12.0762 1.52118 11.3534C2.31347 10.3722 2.63959 9.52085 2.63959 8.07638V7.58639C2.63959 5.65193 3.08068 4.387 3.98899 3.14872C5.33944 1.34283 7.50414 0.259766 9.64583 0.259766H9.73991C11.9276 0.259766 14.1623 1.39496 15.4898 3.27845C16.3511 4.49125 16.7462 5.7029 16.7462 7.58639V8.07638ZM6.61429 21.0318C6.61429 20.4526 7.10032 20.1873 7.54978 20.0738C8.07553 19.9522 11.2792 19.9522 11.8049 20.0738C12.2544 20.1873 12.7404 20.4526 12.7404 21.0318C12.7143 21.5831 12.4185 22.072 12.0098 22.3824C11.4799 22.8342 10.858 23.1203 10.2078 23.2234C9.84826 23.2743 9.49497 23.2755 9.14795 23.2234C8.49676 23.1203 7.87485 22.8342 7.34596 22.3812C6.93622 22.072 6.64042 21.5831 6.61429 21.0318Z" fill="#06152B"/>
</svg>
