<svg width="21" height="24" viewBox="0 0 21 24" fill="none" xmlns="http://www.w3.org/2000/svg">
<path fill-rule="evenodd" clip-rule="evenodd" d="M19.529 13.6856C19.9052 13.9041 20.1954 14.2492 20.3996 14.5942C20.7973 15.3073 20.765 16.1814 20.3781 16.952L19.6257 18.3321C19.2281 19.0682 18.4865 19.5282 17.7234 19.5282C17.3472 19.5282 16.928 19.4132 16.5841 19.1832C16.3046 18.9877 15.9822 18.9187 15.6383 18.9187C14.5742 18.9187 13.6821 19.8733 13.6499 21.0119C13.6499 22.3345 12.6611 23.3696 11.4251 23.3696H9.96338C8.71663 23.3696 7.72782 22.3345 7.72782 21.0119C7.70633 19.8733 6.81425 18.9187 5.75021 18.9187C5.39553 18.9187 5.07309 18.9877 4.8044 19.1832C4.46046 19.4132 4.03055 19.5282 3.66512 19.5282C2.89127 19.5282 2.14967 19.0682 1.752 18.3321L1.01039 16.952C0.61272 16.2044 0.591224 15.3073 0.988896 14.5942C1.16086 14.2492 1.4833 13.9041 1.84873 13.6856C2.14967 13.5246 2.34313 13.2601 2.52584 12.9495C3.06324 11.9604 2.7408 10.6608 1.82723 10.0742C0.76319 9.41865 0.419258 7.958 1.03189 6.81938L1.752 5.46223C2.37537 4.32361 3.70811 3.92107 4.7829 4.58814C5.71797 5.1402 6.93248 4.77216 7.48062 3.79455C7.65259 3.47252 7.74932 3.12748 7.72782 2.78244C7.70633 2.3339 7.82455 1.90835 8.02876 1.56331C8.42643 0.850239 9.14654 0.39019 9.93114 0.367188H11.4466C12.2419 0.367188 12.962 0.850239 13.3597 1.56331C13.5532 1.90835 13.6821 2.3339 13.6499 2.78244C13.6284 3.12748 13.7251 3.47252 13.8971 3.79455C14.4452 4.77216 15.6598 5.1402 16.6056 4.58814C17.6696 3.92107 19.0131 4.32361 19.6257 5.46223L20.3458 6.81938C20.9692 7.958 20.6253 9.41865 19.5505 10.0742C18.6369 10.6608 18.3145 11.9604 18.8626 12.9495C19.0346 13.2601 19.2281 13.5246 19.529 13.6856ZM7.65223 11.8796C7.65223 13.6852 9.01721 15.1229 10.7046 15.1229C12.392 15.1229 13.7248 13.6852 13.7248 11.8796C13.7248 10.0739 12.392 8.62471 10.7046 8.62471C9.01721 8.62471 7.65223 10.0739 7.65223 11.8796Z" fill="#06152B"/>
</svg>
