<svg width="22" height="19" viewBox="0 0 22 19" fill="none" xmlns="http://www.w3.org/2000/svg">
<path fill-rule="evenodd" clip-rule="evenodd" d="M20.9859 7.65158C20.8435 7.80286 20.6503 7.8893 20.4469 7.8893C19.6942 7.8893 19.0839 8.53764 19.0839 9.32645C19.0839 10.1207 19.6871 10.7658 20.4326 10.7744C20.8527 10.7787 21.2097 11.0899 21.2097 11.5362V14.3078C21.2097 16.6408 19.4298 18.5328 17.2328 18.5328H13.917C13.5742 18.5328 13.2966 18.2379 13.2966 17.8737V15.5397C13.2966 15.0858 12.9609 14.7293 12.5337 14.7293C12.1167 14.7293 11.7709 15.0858 11.7709 15.5397V17.8737C11.7709 18.2379 11.4932 18.5328 11.1515 18.5328H4.1527C1.9659 18.5328 0.175781 16.6419 0.175781 14.3078V11.5362C0.175781 11.0899 0.532788 10.7787 0.952856 10.7744C1.69942 10.7658 2.30155 10.1207 2.30155 9.32645C2.30155 8.55925 1.71162 7.97575 0.938617 7.97575C0.735194 7.97575 0.541942 7.8893 0.399546 7.73802C0.25715 7.58674 0.175781 7.38144 0.175781 7.16532V4.36667C0.175781 2.03697 1.96997 0.130859 4.16287 0.130859H11.1515C11.4932 0.130859 11.7709 0.425853 11.7709 0.790003V3.55624C11.7709 3.99927 12.1167 4.36667 12.5337 4.36667C12.9609 4.36667 13.2966 3.99927 13.2966 3.55624V0.790003C13.2966 0.425853 13.5742 0.130859 13.917 0.130859H17.2328C19.4298 0.130859 21.2097 2.02184 21.2097 4.35586V7.07888C21.2097 7.29499 21.1283 7.5003 20.9859 7.65158ZM12.534 12.6333C12.9612 12.6333 13.2968 12.2659 13.2968 11.8228V7.50058C13.2968 7.05755 12.9612 6.69016 12.534 6.69016C12.117 6.69016 11.7711 7.05755 11.7711 7.50058V11.8228C11.7711 12.2659 12.117 12.6333 12.534 12.6333Z" fill="#06152B"/>
</svg>
