<svg width="22" height="26" viewBox="0 0 22 26" fill="none" xmlns="http://www.w3.org/2000/svg">
<path fill-rule="evenodd" clip-rule="evenodd" d="M9.38784 1.95929C8.68119 1.95929 8.08001 2.55991 7.91125 3.36945H13.5856C13.4168 2.55991 12.8156 1.95929 12.109 1.95929H9.38784ZM15.1886 3.36874H17.2769C19.4918 3.36874 21.2953 5.60151 21.2953 8.3435C21.2953 8.3435 21.232 9.50428 21.2109 11.1208C21.2088 11.2487 21.1582 11.3741 21.0749 11.4498C20.5675 11.9081 20.1035 12.2868 20.0613 12.3129C18.3105 13.7492 16.276 14.7598 14.1086 15.2625C13.9673 15.2964 13.828 15.2063 13.7563 15.0523C13.1488 13.7648 12.014 12.9266 10.7483 12.9266C9.49113 12.9266 8.34573 13.7557 7.7203 15.0444C7.64752 15.1959 7.51041 15.2834 7.37014 15.2507C5.22067 14.7467 3.18616 13.7374 1.44591 12.3259L0.4334 11.4642C0.349025 11.3989 0.29629 11.2814 0.29629 11.1508C0.264649 10.4849 0.211914 8.3435 0.211914 8.3435C0.211914 5.60151 2.01544 3.36874 4.23031 3.36874H6.30806C6.50845 1.47546 7.80573 0 9.38777 0H12.1089C13.6909 0 14.9882 1.47546 15.1886 3.36874ZM20.9361 13.9433L20.8939 13.9694C18.7634 15.7191 16.2004 16.8812 13.5109 17.3643C13.1312 17.4296 12.7515 17.1292 12.6461 16.6592C12.414 15.5885 11.6652 14.8834 10.7687 14.8834H10.7581H10.737C9.84055 14.8834 9.0917 15.5885 8.85967 16.6592C8.7542 17.1292 8.3745 17.4296 7.99481 17.3643C5.3053 16.8812 2.74236 15.7191 0.611847 13.9694C0.6013 13.9564 0.495829 13.878 0.411452 13.9433C0.316528 14.0086 0.316528 14.1653 0.316528 14.1653L0.390358 20.8244C0.390358 23.5664 2.18336 25.7861 4.39825 25.7861H17.0969C19.3118 25.7861 21.1048 23.5664 21.1048 20.8244L21.1892 14.1653C21.1892 14.1653 21.1892 14.0086 21.0943 13.9433C21.0415 13.9041 20.9783 13.9172 20.9361 13.9433ZM11.5386 19.4145C11.5386 19.9629 11.1905 20.3937 10.7476 20.3937C10.3151 20.3937 9.95654 19.9629 9.95654 19.4145V17.7301C9.95654 17.1947 10.3151 16.7508 10.7476 16.7508C11.1905 16.7508 11.5386 17.1947 11.5386 17.7301V19.4145Z" fill="#3A36DB"/>
</svg>
